<?xml version="1.0" standalone="no"?>
<!DOCTYPE svg PUBLIC "-//W3C//DTD SVG 20010904//EN"
 "http://www.w3.org/TR/2001/REC-SVG-20010904/DTD/svg10.dtd">
<svg version="1.0" xmlns="http://www.w3.org/2000/svg"
 width="1120.000000pt" height="1120.000000pt" viewBox="0 0 1120.000000 1120.000000"
 preserveAspectRatio="xMidYMid meet">

<g transform="translate(0.000000,1120.000000) scale(0.100000,-0.100000)"
fill="#000000" stroke="none">
<path d="M5503 7426 c0 -14 63 -33 74 -22 12 11 -11 28 -33 23 -13 -2 -21 0
-18 4 3 5 -1 9 -9 9 -7 0 -14 -6 -14 -14z"/>
<path d="M5590 7401 c0 -5 7 -12 16 -15 14 -5 15 -4 4 9 -14 17 -20 19 -20 6z"/>
<path d="M5706 7389 c-59 -5 -73 -10 -93 -34 -15 -16 -22 -34 -18 -44 4 -9 8
-31 11 -50 4 -30 2 -33 -17 -28 -12 3 -33 1 -47 -4 -18 -7 -27 -6 -32 2 -6 8
-9 7 -13 -2 -3 -10 -16 -4 -43 21 -22 19 -54 49 -73 65 l-34 30 20 -30 c33
-48 241 -245 259 -245 19 0 10 15 -33 53 -33 29 -44 53 -20 44 6 -2 11 -10 9
-17 -1 -6 3 -10 10 -8 7 3 12 14 10 25 -2 11 4 23 13 26 10 5 15 0 15 -13 0
-27 17 -34 25 -10 3 11 15 20 26 20 13 0 19 7 19 21 0 13 -4 18 -12 13 -7 -5
-8 -3 -4 5 5 7 14 10 22 7 8 -3 11 0 7 10 -3 8 -12 13 -21 12 -11 -2 -18 8
-23 32 -4 19 -10 45 -14 56 -5 15 -2 23 9 27 9 4 16 2 16 -4 0 -6 7 -6 20 1
12 6 27 7 38 2 9 -5 35 -9 57 -10 22 -1 33 1 25 5 -8 3 -22 11 -30 17 -10 8
-38 10 -84 5z m-181 -189 c10 -11 16 -20 13 -20 -3 0 -13 9 -23 20 -10 11 -16
20 -13 20 3 0 13 -9 23 -20z"/>
<path d="M5388 7383 c7 -3 16 -2 19 1 4 3 -2 6 -13 5 -11 0 -14 -3 -6 -6z"/>
<path d="M5443 7383 c9 -2 25 -2 35 0 9 3 1 5 -18 5 -19 0 -27 -2 -17 -5z"/>
<path d="M5865 7370 c3 -5 -2 -10 -12 -10 -17 -1 -17 -1 0 -11 13 -8 27 -7 48
1 39 17 37 30 -7 30 -21 0 -33 -4 -29 -10z"/>
<path d="M5935 7358 c-5 -6 -39 -36 -75 -69 -55 -49 -61 -58 -42 -59 28 0 136
100 131 122 -3 10 -7 12 -14 6z"/>
<path d="M5751 7266 c-9 -10 -8 -15 3 -19 16 -7 26 1 26 20 0 17 -14 17 -29
-1z"/>
<path d="M5734 7174 c-21 -26 -41 -52 -43 -58 -2 -6 -10 -19 -19 -28 -14 -16
-13 -18 1 -18 8 0 32 22 52 50 20 27 47 58 61 69 29 23 30 31 6 31 -11 0 -36
-21 -58 -46z"/>
<path d="M5636 7131 c-8 -12 3 -41 15 -41 5 0 9 11 9 25 0 25 -14 34 -24 16z"/>
<path d="M2926 6467 c-3 -28 -6 -73 -6 -99 0 -27 -5 -48 -11 -48 -5 0 -7 5 -4
10 3 6 2 10 -4 10 -5 0 -11 -6 -14 -12 -3 -10 -7 -10 -20 1 -15 12 -17 11 -17
-3 0 -20 -5 -20 -35 0 -18 12 -28 13 -42 4 -16 -10 -16 -10 4 -5 12 3 24 2 26
-2 7 -12 -45 -13 -66 -2 -12 7 -17 6 -15 -2 2 -7 -5 -15 -14 -17 -10 -2 -18 2
-18 8 0 6 4 9 8 6 5 -3 9 1 9 9 0 11 -4 12 -14 4 -7 -6 -13 -9 -13 -5 0 4 -12
-2 -27 -11 -26 -17 -27 -17 -20 1 6 16 5 17 -7 7 -18 -15 -36 -6 -36 17 -1 16
-1 15 -11 -1 -5 -9 -8 -20 -5 -25 2 -4 -6 -7 -18 -7 -18 0 -22 4 -18 19 5 18
3 17 -16 -2 -27 -27 -38 -27 -52 -4 -10 15 -11 15 -7 -5 5 -23 -2 -23 -52 3
-16 8 -30 10 -41 4 -10 -5 -20 -6 -24 -3 -3 3 -6 2 -6 -3 0 -5 -18 -9 -39 -9
-22 0 -37 3 -34 8 2 4 -8 7 -22 7 -18 0 -24 -4 -19 -12 5 -10 4 -10 -6 -1 -9
8 -19 9 -32 2 -12 -6 -18 -6 -18 1 0 18 -18 11 -52 -20 -18 -16 -27 -30 -21
-30 7 0 15 5 18 10 8 13 25 13 25 -1 0 -5 -4 -8 -9 -4 -14 8 -25 -15 -23 -48
3 -34 49 -130 60 -123 4 2 8 -4 8 -14 0 -10 -3 -17 -7 -15 -3 3 -4 -7 -1 -20
2 -14 8 -25 12 -25 5 0 4 -16 -1 -36 -7 -24 -7 -39 0 -48 8 -9 9 -44 2 -74 -1
-2 -13 9 -28 23 -31 28 -48 33 -39 10 3 -8 1 -15 -5 -15 -6 0 -7 -5 -4 -10 3
-6 18 -8 32 -6 19 4 23 1 19 -10 -4 -10 2 -14 20 -14 23 0 24 -1 10 -16 -18
-18 -20 -30 -6 -39 6 -4 8 -11 4 -16 -3 -5 -8 -80 -10 -167 -5 -157 -18 -252
-35 -252 -5 0 -9 9 -9 20 0 31 -28 166 -51 240 -18 62 -78 190 -89 190 -3 0
-5 -31 -5 -69 0 -43 4 -67 10 -63 6 3 5 -1 -2 -9 -6 -8 -10 -24 -8 -34 2 -11
4 -28 4 -38 1 -26 21 -10 21 16 0 19 2 19 15 -7 14 -26 14 -31 1 -44 -13 -14
-14 -12 -9 9 5 20 3 22 -8 11 -9 -8 -14 -35 -14 -72 -1 -49 2 -60 18 -64 11
-3 16 -9 12 -16 -4 -6 -12 -9 -19 -7 -7 3 -11 -13 -11 -52 1 -31 -3 -72 -7
-91 -4 -20 -3 -39 3 -47 7 -8 7 -18 0 -32 -6 -11 -8 -27 -5 -35 4 -9 1 -23 -6
-31 -9 -10 -9 -15 -1 -15 6 0 11 -14 11 -30 l0 -31 84 3 c46 2 82 6 79 11 -2
4 0 7 6 7 15 0 21 -14 11 -30 -5 -8 -5 -21 0 -29 16 -32 -14 -43 -135 -51
l-90 -5 54 -58 c140 -149 315 -236 363 -179 30 35 50 89 54 150 2 35 6 68 10
73 3 5 1 9 -5 9 -6 0 -8 6 -6 13 5 15 14 83 20 157 3 30 6 66 8 80 2 14 5 34
6 45 1 17 3 18 11 5 8 -12 10 -9 10 13 0 16 4 26 9 22 5 -3 11 5 13 17 2 13
11 24 23 26 11 2 25 10 31 17 11 15 112 43 167 47 23 2 37 8 37 16 0 7 5 10
10 7 16 -10 71 18 65 32 -2 7 0 13 6 13 14 0 40 65 42 104 2 59 -14 140 -35
170 -27 38 -125 136 -137 136 -5 0 -12 -19 -16 -42 -4 -24 -15 -48 -24 -55
-13 -10 -14 -15 -3 -32 15 -26 15 -28 -3 -35 -9 -3 -15 -1 -14 7 1 6 1 21 0
32 -2 19 -2 19 -16 2 -7 -10 -12 -28 -9 -40 3 -18 -1 -22 -26 -23 -16 -1 -27
2 -25 7 6 9 -34 23 -42 15 -4 -3 2 -6 12 -6 10 0 15 -3 11 -7 -12 -12 -30 -10
-42 6 -9 11 -15 11 -30 2 -18 -11 -17 -12 4 -6 13 4 22 2 22 -4 0 -12 -22 -13
-58 -2 -20 5 -11 12 60 44 57 26 89 46 100 65 l16 27 -42 18 c-40 17 -124 16
-151 -1 -5 -4 -25 -11 -43 -17 l-33 -10 27 -32 c15 -18 34 -33 43 -33 14 0 14
-2 2 -9 -9 -6 -23 -6 -35 1 -23 12 -149 126 -154 140 -2 4 8 12 22 18 16 6 28
20 32 37 4 15 11 34 17 41 5 7 17 27 26 45 11 23 34 41 76 61 66 33 105 35
357 23 125 -6 220 10 246 42 11 14 14 14 23 1 7 -10 9 17 7 90 -3 86 -8 113
-27 150 -13 25 -32 62 -42 82 -28 54 -36 53 -43 -5z m-756 -317 c5 7 8 2 8
-14 0 -24 -2 -25 -14 -9 -7 10 -13 23 -13 28 0 6 3 4 6 -4 4 -10 7 -10 13 -1z
m222 -458 c-12 -8 -72 -4 -72 4 0 2 19 4 43 4 25 0 37 -4 29 -8z m271 -9 c-7
-2 -19 -2 -25 0 -7 3 -2 5 12 5 14 0 19 -2 13 -5z m-633 -213 c0 -5 -2 -10 -4
-10 -3 0 -8 5 -11 10 -3 6 -1 10 4 10 6 0 11 -4 11 -10z m35 -61 c-7 -10 39
-86 60 -101 15 -11 -10 -32 -29 -25 -17 7 -70 86 -63 94 3 3 10 -5 17 -16 6
-12 15 -21 21 -21 5 0 2 14 -6 30 -14 27 -13 50 1 50 3 0 2 -5 -1 -11z m88
-84 c4 -8 3 -16 -1 -19 -4 -3 -9 4 -9 15 -2 23 3 25 10 4z m2 -135 c3 -5 1
-10 -4 -10 -6 0 -11 5 -11 10 0 6 2 10 4 10 3 0 8 -4 11 -10z m-8 -75 c0 -8
-4 -15 -9 -15 -10 0 -11 14 -1 23 9 10 10 9 10 -8z"/>
<path d="M8364 6495 c-4 -15 -7 -62 -8 -104 l-1 -78 -39 -1 c-21 -1 -46 4 -54
11 -10 7 -13 8 -9 1 4 -7 0 -15 -9 -18 -8 -3 -12 -2 -9 4 3 6 2 10 -4 10 -5 0
-12 -4 -16 -10 -3 -5 -12 -7 -20 -4 -7 3 -25 -2 -39 -11 -16 -11 -26 -13 -26
-6 0 6 8 11 18 12 15 0 15 1 -2 8 -14 5 -16 10 -8 15 14 9 16 26 3 26 -5 0
-12 -9 -16 -19 -6 -20 -45 -25 -45 -6 0 5 -8 1 -17 -10 -15 -19 -15 -19 -9 9
l7 30 -18 -23 c-20 -25 -48 -32 -80 -20 -15 5 -25 3 -33 -7 -18 -21 -32 -17
-25 6 4 11 2 20 -4 20 -6 0 -11 -7 -11 -15 0 -19 -9 -19 -32 2 -17 15 -18 14
-18 -16 0 -23 -4 -30 -12 -25 -10 6 -10 5 -1 -7 10 -12 9 -20 -4 -39 -9 -13
-11 -20 -5 -16 9 6 11 -15 8 -81 -2 -52 0 -93 6 -100 7 -9 7 -13 0 -13 -16 0
-21 -38 -5 -44 9 -4 11 -11 6 -18 -4 -7 -6 -21 -5 -31 2 -9 -4 -20 -12 -23 -9
-3 -16 -10 -16 -16 0 -5 4 -7 8 -4 5 3 8 -5 7 -17 -1 -12 3 -25 9 -29 8 -5 7
-8 -1 -8 -7 0 -13 -9 -13 -21 0 -11 4 -18 9 -15 10 7 8 -9 -4 -38 -6 -13 -4
-21 3 -24 7 -2 12 -11 11 -20 0 -11 -2 -12 -6 -4 -7 19 -21 14 -29 -10 -11
-30 -14 -50 -18 -126 -4 -61 -4 -63 14 -47 16 15 18 15 24 -1 4 -9 4 -19 1
-22 -3 -3 -5 0 -5 6 0 18 -14 14 -27 -7 -10 -16 -8 -18 13 -15 28 3 31 -8 8
-31 -9 -9 -13 -19 -9 -23 4 -4 10 -1 12 6 8 21 21 13 19 -13 0 -14 -5 -25 -9
-25 -4 0 -3 -9 3 -19 7 -14 7 -22 -1 -27 -6 -3 -8 -15 -5 -27 4 -18 3 -19 -10
-5 -13 13 -14 20 -4 39 7 13 9 21 5 17 -5 -4 -15 -2 -23 5 -13 10 -14 5 -10
-42 3 -34 12 -59 22 -66 9 -7 16 -18 16 -24 0 -8 -6 -7 -16 4 -20 20 -35 8
-37 -28 -1 -14 -5 -23 -9 -21 -14 9 -19 -18 -6 -33 9 -12 9 -15 1 -9 -12 7
-18 -5 -14 -27 1 -5 -3 -6 -9 -2 -7 4 -6 13 2 28 11 21 10 21 -8 7 -28 -22
-84 -82 -95 -102 -8 -14 -6 -16 7 -11 12 4 15 3 10 -5 -5 -8 0 -12 13 -12 12
0 21 6 21 13 0 9 3 8 9 -2 7 -10 13 -11 30 -1 18 9 30 7 66 -11 45 -23 53 -33
35 -44 -5 -3 -7 -12 -4 -19 4 -12 -13 -13 -93 -11 -69 3 -105 0 -123 -10 l-24
-13 41 -41 c45 -46 61 -48 158 -27 119 25 194 86 223 179 18 56 19 87 16 307
-1 135 -5 262 -7 283 -7 58 9 167 33 217 28 61 50 97 50 85 0 -5 9 3 19 19 17
25 20 26 24 10 4 -17 5 -17 12 3 5 16 13 20 31 17 13 -2 24 0 24 6 0 5 3 9 8
8 8 -3 90 17 137 33 17 6 38 12 48 14 27 6 89 46 114 75 19 21 23 36 21 87 -2
90 -48 187 -139 297 -5 5 -11 -3 -15 -19z m-534 -829 c0 -3 -4 -8 -10 -11 -5
-3 -10 -1 -10 4 0 6 5 11 10 11 6 0 10 -2 10 -4z m-6 -42 c3 -8 2 -12 -4 -9
-6 3 -10 10 -10 16 0 14 7 11 14 -7z m-33 -511 c13 -16 12 -17 -3 -4 -10 7
-18 15 -18 17 0 8 8 3 21 -13z m23 -74 c-4 -6 -11 -6 -20 2 -21 17 -17 31 6
19 11 -6 18 -15 14 -21z"/>
<path d="M7458 6483 c7 -3 16 -2 19 1 4 3 -2 6 -13 5 -11 0 -14 -3 -6 -6z"/>
<path d="M7500 6480 c0 -13 11 -13 30 0 12 8 11 10 -7 10 -13 0 -23 -4 -23
-10z"/>
<path d="M8994 6455 c4 -20 12 -49 18 -64 31 -77 86 -246 82 -253 -3 -4 -1 -8
5 -8 5 0 12 -10 16 -22 3 -13 10 -32 15 -43 14 -32 106 -286 120 -330 7 -22
23 -61 35 -87 l23 -48 -41 4 c-42 3 -42 4 -70 72 -44 106 -67 175 -73 217 -5
44 -44 118 -59 114 -5 -2 -11 -14 -13 -26 -2 -13 -16 -37 -30 -53 -30 -33 -31
-40 -12 -83 l14 -30 6 45 c5 34 8 41 14 27 5 -11 3 -34 -4 -57 -12 -37 -11
-43 18 -104 17 -36 29 -73 26 -81 -4 -9 1 -17 11 -21 9 -4 14 -13 11 -20 -6
-14 21 -74 33 -74 4 0 7 -10 6 -22 -1 -13 2 -29 8 -35 6 -9 6 -13 -2 -13 -6 0
-11 -6 -11 -14 0 -8 -7 -17 -15 -20 -14 -5 -14 -3 -1 16 14 19 13 25 -10 64
-14 24 -23 47 -20 52 8 13 -58 1 -69 -13 -18 -22 -128 -95 -144 -96 -9 0 -11
-3 -4 -5 6 -3 28 2 48 10 20 9 42 13 48 9 6 -3 7 -1 3 6 -5 8 2 11 21 11 15
-1 37 0 47 2 26 4 32 -18 6 -25 -11 -3 -18 -1 -14 4 9 15 -6 10 -37 -12 -22
-16 -47 -21 -94 -23 -45 -1 -65 -5 -65 -13 0 -7 -7 -13 -16 -13 -10 0 -14 6
-11 14 4 9 1 13 -7 10 -7 -3 -21 4 -31 16 -22 24 -43 25 -74 3 -14 -9 -21 -11
-17 -5 3 6 -1 15 -10 20 -14 8 -13 10 8 15 14 4 34 5 45 3 21 -4 45 15 56 44
4 12 6 12 6 -2 1 -9 10 -19 20 -23 11 -3 23 -14 26 -24 4 -13 12 -17 26 -14
19 5 18 8 -10 59 -21 36 -27 54 -18 57 31 13 -106 5 -143 -8 -23 -8 -72 -15
-107 -15 -55 0 -68 3 -84 23 -18 22 -18 22 -19 1 0 -22 90 -106 128 -118 20
-7 20 -9 7 -23 -10 -9 -22 -12 -33 -7 -9 4 -23 6 -31 5 -7 -1 -10 3 -6 9 7 11
-50 90 -66 90 -5 0 -11 -12 -15 -27 -8 -35 -72 -173 -90 -193 -8 -9 -11 -26
-7 -40 6 -22 7 -23 14 -4 6 14 7 10 6 -15 -2 -25 2 -34 15 -36 10 -2 20 1 24
6 3 5 0 9 -7 9 -10 0 -10 3 -1 12 8 8 15 8 26 -1 7 -6 18 -11 22 -10 21 4 23
-3 8 -26 -9 -14 -13 -25 -10 -25 4 0 0 -11 -9 -24 -8 -13 -13 -31 -9 -40 4
-11 26 25 69 113 44 89 72 135 91 148 24 16 53 18 219 20 260 3 267 3 283 -6
8 -4 22 -25 32 -47 15 -31 19 -34 19 -16 1 28 21 29 21 0 0 -28 22 -91 35
-100 6 -5 4 -12 -5 -18 -13 -8 -12 -10 3 -10 9 0 17 -5 17 -10 0 -6 7 -27 16
-48 10 -20 18 -41 19 -47 8 -28 25 -64 34 -70 6 -3 11 -18 11 -33 1 -26 1 -26
15 -8 8 10 12 23 9 27 -2 5 4 14 14 20 20 13 19 51 -2 78 -8 11 -8 13 2 7 11
-7 17 16 13 52 -1 6 3 12 9 12 5 0 10 7 10 16 0 8 -4 12 -10 9 -6 -4 -10 8
-10 28 0 25 -13 54 -44 100 -42 60 -168 306 -172 334 -1 7 2 10 8 7 5 -3 7 -8
4 -11 -2 -3 3 -13 12 -24 9 -11 53 -90 97 -176 55 -106 87 -158 101 -164 18
-6 21 -4 17 12 -3 10 -9 19 -14 19 -10 0 -12 33 -3 43 9 8 56 -92 49 -103 -3
-4 2 -13 10 -20 8 -7 15 -19 15 -26 0 -8 6 -23 12 -34 10 -16 10 -24 -1 -42
-13 -21 -13 -22 1 -10 13 11 17 9 22 -13 4 -14 20 -54 36 -87 17 -34 30 -63
30 -64 0 -2 -37 -3 -82 -3 -46 0 -96 -4 -111 -8 l-28 -8 26 -25 c33 -31 132
-40 188 -17 32 14 37 20 37 49 0 18 -12 58 -26 88 -34 73 -105 257 -154 400
-55 162 -82 236 -242 660 -22 58 -52 146 -67 195 -29 94 -63 169 -82 181 -9 5
-10 -3 -5 -31z m125 -737 c10 -30 9 -31 -4 -14 -8 11 -15 26 -15 33 0 22 8 14
19 -19z m179 -151 c6 -7 13 -25 16 -39 3 -21 1 -26 -13 -25 -10 0 -18 6 -18
12 0 31 -4 45 -13 40 -6 -3 -7 1 -4 9 7 19 18 20 32 3z m-178 -111 c0 -2 -8
-10 -17 -17 -16 -13 -17 -12 -4 4 13 16 21 21 21 13z m250 -51 c0 -21 -17 -18
-30 4 -15 28 -13 33 10 21 11 -6 20 -17 20 -25z m-200 -30 c0 -8 -4 -15 -9
-15 -5 0 -11 7 -15 15 -3 9 0 15 9 15 8 0 15 -7 15 -15z m-680 -106 c0 -11 -4
-18 -10 -14 -5 3 -7 12 -3 20 7 21 13 19 13 -6z"/>
<path d="M7342 6471 c-11 -7 -11 -9 1 -14 15 -6 84 7 94 17 10 9 -80 7 -95 -3z"/>
<path d="M7331 6387 c-1 -10 -8 -29 -17 -43 -15 -22 -15 -24 -1 -18 9 3 16 9
15 12 -1 4 2 15 6 24 4 10 6 23 3 30 -3 8 -6 6 -6 -5z"/>
<path d="M7705 6380 c-17 -8 -17 -9 7 -7 15 1 24 5 22 9 -3 4 -6 8 -7 7 -1 0
-11 -4 -22 -9z"/>
<path d="M3467 6374 c-3 -4 1 -13 9 -21 8 -9 13 -20 11 -27 -5 -14 -77 -20
-77 -6 0 6 -5 8 -12 4 -8 -5 -9 -1 -4 12 7 18 6 18 -10 2 -13 -13 -21 -14 -41
-5 -27 12 -41 3 -48 -31 -2 -11 -8 -30 -14 -41 -13 -24 -14 -54 -2 -46 5 3 12
1 15 -4 3 -5 0 -11 -8 -14 -7 -3 -17 -18 -20 -34 -16 -65 -92 -218 -137 -275
-16 -20 -25 -39 -19 -43 18 -11 42 -75 37 -100 -3 -19 2 -31 21 -45 13 -11 32
-19 41 -19 12 1 12 2 -2 6 -13 3 -17 11 -14 23 3 11 0 21 -7 23 -6 2 -7 8 -3
13 11 11 27 -15 20 -33 -4 -10 7 -13 45 -13 l51 0 -4 -47 c-2 -27 -5 -84 -6
-127 -1 -44 -5 -94 -9 -111 -4 -18 -3 -40 2 -49 6 -10 5 -16 -1 -16 -5 0 -12
6 -15 13 -3 6 -3 2 0 -10 10 -40 -14 -24 -30 20 -24 67 -43 129 -51 167 -10
50 -66 171 -76 164 -5 -3 -6 -26 -3 -52 4 -26 7 -61 8 -78 0 -22 5 -30 14 -26
11 4 11 -1 -1 -24 -11 -22 -12 -35 -5 -48 8 -14 7 -17 -1 -12 -7 5 -11 -3 -12
-21 -1 -15 -2 -42 -3 -60 0 -17 2 -29 7 -26 4 2 7 -3 7 -11 0 -9 -3 -16 -7
-16 -5 0 -8 -17 -8 -37 -1 -53 -8 -107 -16 -113 -7 -6 4 -107 13 -116 3 -3 30
-8 59 -10 64 -6 62 -5 88 -49 l20 -35 -99 0 c-54 0 -101 -4 -104 -9 -8 -12
118 -130 185 -175 72 -47 131 -59 180 -35 42 21 54 35 62 69 13 63 97 278 114
291 7 6 13 20 13 30 0 14 7 19 25 19 14 0 28 7 31 15 4 8 15 15 26 15 10 0 17
-4 14 -9 -4 -5 2 -8 11 -7 19 3 72 -55 117 -127 17 -26 32 -44 35 -42 2 3 13
-3 24 -12 19 -17 19 -17 12 6 -5 16 -4 21 4 17 6 -4 11 -2 11 4 0 6 10 8 25 4
15 -4 25 -2 25 5 0 6 5 11 11 11 5 0 7 -4 4 -10 -3 -5 -1 -10 5 -10 6 0 8 10
4 25 -4 16 -2 25 6 25 6 0 9 -3 7 -7 -3 -5 7 -17 22 -28 20 -15 23 -15 12 -2
-11 14 -11 20 0 34 10 11 10 14 2 9 -7 -4 -13 -2 -13 3 0 18 17 12 33 -11 8
-13 30 -38 48 -56 27 -27 30 -35 18 -43 -8 -4 -22 -6 -32 -3 -27 8 -197 8
-205 -1 -11 -11 146 -151 197 -176 25 -12 54 -26 63 -31 10 -4 38 -8 63 -8 53
0 60 10 51 75 -7 47 -81 169 -96 160 -9 -6 -50 46 -50 63 0 6 -11 23 -24 39
-12 15 -31 46 -40 68 -10 22 -21 47 -26 56 -4 9 -2 25 5 40 10 18 10 26 2 31
-9 6 -8 8 2 8 18 0 146 132 143 148 -2 6 4 12 13 12 8 0 15 7 15 15 0 8 4 15
9 15 12 0 18 47 27 215 7 124 9 235 4 288 -1 10 -9 17 -21 17 -23 0 -33 24
-43 95 -9 67 -32 135 -56 165 -24 31 -25 21 -4 -55 9 -33 18 -71 20 -85 2 -14
6 -35 9 -47 3 -14 -1 -26 -12 -32 -10 -6 -12 -11 -5 -11 6 0 12 -7 12 -15 0
-8 -6 -15 -12 -15 -10 0 -9 -3 1 -9 9 -6 10 -11 2 -15 -6 -4 -9 -12 -6 -17 4
-5 1 -9 -5 -9 -6 0 -8 -5 -4 -11 3 -6 -3 -24 -15 -40 -11 -15 -21 -33 -21 -39
0 -13 -6 -13 -30 0 -13 7 -17 16 -13 28 5 13 3 14 -7 5 -9 -9 -25 -5 -66 17
-50 26 -54 26 -54 9 0 -11 8 -22 18 -25 9 -3 25 -10 34 -15 10 -5 22 -9 28 -9
6 0 27 -7 46 -15 33 -13 34 -16 20 -31 -9 -8 -16 -21 -16 -28 0 -29 -57 -58
-197 -101 -81 -25 -152 -45 -158 -45 -13 1 54 32 79 37 11 2 25 8 31 13 7 5
15 7 18 3 4 -3 7 -1 7 6 0 8 6 11 16 7 8 -3 13 -2 10 3 -3 4 6 14 19 21 14 7
25 17 25 21 0 5 8 6 18 3 14 -5 14 -3 -2 10 -33 27 -94 23 -145 -8 -20 -12
-49 -28 -66 -35 -16 -7 -38 -17 -48 -23 -18 -9 -37 -3 -37 12 0 5 18 16 40 26
21 10 42 24 45 33 4 11 0 9 -16 -5 -17 -15 -21 -15 -17 -3 5 14 -11 16 -130
18 -128 2 -136 1 -114 -14 12 -9 31 -18 43 -20 11 -2 35 -14 52 -25 26 -18 28
-20 8 -15 -16 5 -21 4 -17 -4 11 -17 3 -14 -95 34 -96 47 -133 56 -123 30 5
-11 2 -13 -10 -9 -21 8 -20 17 4 32 20 12 20 13 3 36 -16 21 -20 22 -33 11
-14 -12 -18 -11 -29 8 -12 19 -12 20 0 10 12 -9 14 -4 15 35 1 52 8 99 16 107
2 3 3 32 1 65 -3 50 -1 59 12 54 13 -5 13 -9 3 -22 -10 -12 -10 -14 -1 -8 17
9 16 -103 -1 -123 -8 -11 -8 -13 2 -7 9 5 12 -3 12 -29 0 -26 -4 -34 -12 -30
-7 4 -6 1 2 -7 8 -7 14 -23 12 -35 -3 -22 -1 -23 80 -22 46 0 77 3 71 6 -17 6
-16 44 1 68 7 11 19 37 25 58 7 20 17 37 22 37 5 0 9 6 9 14 0 8 14 24 30 36
17 12 30 18 30 14 0 -3 6 -1 14 5 34 28 244 44 286 21 23 -12 23 -12 16 30 -8
50 -88 207 -118 233 -22 18 -23 18 -55 -16 -32 -34 -35 -35 -105 -35 -68 1
-117 12 -104 25 7 7 -12 43 -23 43 -4 0 -10 -3 -14 -6z m328 -82 c-3 -3 -11 0
-18 7 -9 10 -8 11 6 5 10 -3 15 -9 12 -12z m-605 -472 c0 -13 -28 -25 -38 -16
-3 4 0 11 8 16 20 13 30 12 30 0z m70 -39 c0 -5 -6 -11 -13 -14 -8 -3 -14 1
-14 9 0 8 6 14 14 14 7 0 13 -4 13 -9z m37 -67 c-3 -3 -12 -4 -19 -1 -8 3 -5
6 6 6 11 1 17 -2 13 -5z m268 -24 c3 -6 -1 -7 -9 -4 -18 7 -21 14 -7 14 6 0
13 -4 16 -10z m85 -46 c8 -9 -3 -4 -25 10 -51 35 -57 42 -19 23 17 -9 37 -23
44 -33z m-184 -1 c-4 -22 -17 -26 -47 -13 -24 10 -24 10 -1 6 14 -3 25 1 29
10 7 20 22 18 19 -3z m51 -9 c-3 -3 -12 -4 -19 -1 -8 3 -5 6 6 6 11 1 17 -2
13 -5z m73 -14 c0 -5 -7 -10 -15 -10 -8 0 -15 -4 -15 -10 0 -5 -10 -14 -22
-20 -17 -8 -14 -3 10 19 35 33 42 37 42 21z m6 -53 c-1 -6 -9 -22 -17 -35
l-16 -22 -12 26 c-6 15 -9 29 -6 32 3 3 5 0 5 -7 0 -9 7 -8 22 3 27 19 27 19
24 3z m-91 -17 c-3 -5 -12 -10 -18 -10 -7 0 -6 4 3 10 19 12 23 12 15 0z m20
-41 c-3 -4 6 -10 20 -13 24 -6 35 -26 14 -26 -5 0 -7 -5 -3 -12 14 -22 -15 3
-35 31 -15 21 -17 28 -6 28 8 0 12 -4 10 -8z m237 -3 c3 3 5 -3 5 -13 -1 -10
4 -17 11 -15 6 1 32 -26 57 -60 25 -35 58 -73 73 -85 l27 -23 -25 0 c-27 0
-105 76 -131 128 -7 15 -22 41 -33 57 -13 20 -15 26 -5 18 9 -7 18 -10 21 -7z
m-619 -96 c3 -11 1 -18 -4 -14 -5 3 -9 12 -9 20 0 20 7 17 13 -6z m74 -86 c3
-8 11 -14 19 -14 16 0 19 -16 3 -25 -11 -7 -45 19 -60 46 -7 14 -5 16 12 12
11 -3 23 -12 26 -19z m50 -49 c-16 -17 -17 -14 -10 14 4 15 8 19 13 10 5 -6 3
-18 -3 -24z m680 19 c-3 -3 -12 -4 -19 -1 -8 3 -5 6 6 6 11 1 17 -2 13 -5z
m31 -44 c20 -26 21 -29 5 -29 -10 1 -28 -3 -41 -6 -18 -6 -24 -3 -29 14 -3 11
-9 19 -13 16 -5 -3 -11 -1 -14 4 -3 5 4 11 17 15 12 3 24 1 25 -4 2 -6 8 -10
13 -10 4 0 6 7 3 15 -10 24 9 16 34 -15z m-776 -12 c-7 -7 -12 -8 -12 -2 0 14
12 26 19 19 2 -3 -1 -11 -7 -17z m603 13 c13 -6 1 -8 -38 -8 -32 0 -60 4 -63
9 -7 10 74 9 101 -1z m-551 -37 c3 -8 2 -12 -4 -9 -6 3 -10 10 -10 16 0 14 7
11 14 -7z m766 -18 c0 -5 10 -20 22 -33 12 -13 17 -23 12 -23 -5 0 -18 11 -28
25 -20 27 -42 34 -33 11 4 -10 0 -12 -14 -9 -19 5 -19 6 -2 23 20 19 43 22 43
6z m-767 -20 c6 -15 -1 -26 -15 -26 -4 0 -8 9 -8 20 0 23 15 27 23 6z m570
-28 c9 2 17 -1 17 -7 0 -6 -5 -11 -11 -11 -5 0 -7 -6 -3 -12 4 -7 -5 -2 -19
11 -15 14 -27 29 -27 35 0 6 6 4 13 -4 7 -9 20 -14 30 -12z m229 -23 c2 3 5
-2 5 -10 0 -19 -14 -19 -33 -1 -22 22 -18 43 4 23 10 -10 21 -15 24 -12z
m-772 -15 c6 -11 8 -20 6 -20 -3 0 -10 9 -16 20 -6 11 -8 20 -6 20 3 0 10 -9
16 -20z m10 -51 c0 -5 -5 -7 -11 -3 -7 4 -9 0 -6 -12 4 -11 9 -32 13 -49 7
-27 6 -28 -8 -14 -13 12 -18 66 -9 87 3 7 21 0 21 -9z"/>
<path d="M3780 5461 c0 -6 4 -13 10 -16 6 -3 7 1 4 9 -7 18 -14 21 -14 7z"/>
<path d="M7357 6369 c7 -7 15 -10 18 -7 3 3 -2 9 -12 12 -14 6 -15 5 -6 -5z"/>
<path d="M7760 6377 c0 -5 9 -21 21 -35 12 -15 20 -20 19 -12 -5 31 0 42 16
36 8 -3 12 -2 9 4 -9 14 -32 12 -38 -2 -4 -10 -8 -9 -16 2 -6 8 -11 11 -11 7z"/>
<path d="M7910 6366 c0 -8 4 -17 9 -20 5 -4 7 3 4 14 -6 23 -13 26 -13 6z"/>
<path d="M4883 6355 c0 -8 4 -12 9 -9 4 3 8 -2 8 -11 0 -9 4 -14 9 -11 5 3 11
-8 13 -24 5 -33 -5 -39 -22 -12 -9 14 -10 13 -6 -10 5 -21 1 -30 -16 -40 -13
-7 -26 -11 -30 -10 -5 1 -8 -2 -8 -7 0 -6 -14 -23 -32 -40 -24 -23 -35 -27
-45 -19 -10 8 -17 7 -26 -4 -7 -7 -20 -20 -30 -27 -15 -12 -17 -12 -11 5 10
28 25 44 35 38 5 -3 14 7 19 21 6 15 19 29 30 32 11 3 20 14 20 25 0 11 5 29
11 40 13 24 8 22 -58 -25 -23 -17 -40 -34 -37 -38 3 -5 -1 -7 -8 -4 -7 3 -40
-15 -73 -40 -33 -25 -64 -45 -70 -45 -16 0 -150 -111 -154 -128 -1 -8 14 1 35
21 46 43 63 47 56 12 -2 -14 2 -33 9 -42 8 -9 9 -14 3 -10 -10 6 -26 -39 -28
-78 -1 -17 -34 -36 -65 -38 -16 -1 -28 -4 -25 -6 2 -2 -2 -13 -8 -25 -14 -25
-18 -86 -6 -86 5 0 3 -10 -3 -22 -8 -14 -14 -18 -17 -10 -2 6 -8 12 -13 12 -6
0 -7 -4 -4 -10 10 -16 -3 -12 -22 8 -10 9 -17 28 -15 41 2 13 -1 21 -6 17 -8
-5 -9 -23 -3 -59 0 -5 6 -5 11 -2 6 3 10 2 10 -4 0 -5 -5 -13 -10 -16 -11 -7
-3 -53 13 -73 7 -10 13 -8 24 5 8 10 3 -3 -11 -29 -28 -50 -33 -74 -14 -62 7
4 8 3 4 -5 -4 -6 -11 -9 -16 -6 -5 3 -14 -3 -20 -12 -9 -15 -10 -14 -6 7 3 14
3 19 0 12 -3 -6 -10 -9 -16 -6 -6 4 4 -21 22 -55 18 -34 35 -60 37 -57 2 2 -5
19 -16 37 -22 36 -26 49 -13 49 4 0 15 -17 24 -38 73 -159 109 -231 117 -236
5 -4 19 6 30 20 12 15 24 24 28 20 4 -4 -8 -21 -26 -37 -34 -29 -34 -29 -15
-50 10 -12 41 -32 68 -46 27 -14 56 -31 64 -39 16 -16 28 -18 36 -5 8 12 30 8
50 -8 14 -11 16 -11 16 3 0 9 -11 21 -24 26 -28 10 -43 30 -24 30 9 0 9 3 -2
10 -9 6 -10 10 -3 10 7 0 21 -9 32 -21 21 -22 41 -9 22 15 -6 7 -10 15 -8 17
1 2 0 3 -2 2 -10 -6 -32 30 -27 44 6 15 7 15 19 0 8 -11 17 -14 26 -8 9 6 10
11 2 15 -6 4 -11 2 -11 -5 0 -7 -3 -10 -6 -6 -3 3 -3 11 1 17 5 8 13 6 26 -6
10 -9 16 -21 12 -27 -3 -5 -1 -7 5 -3 5 3 12 1 14 -6 3 -8 7 -6 11 5 3 9 2 17
-4 17 -6 0 -7 5 -4 10 3 6 1 10 -5 10 -6 0 -15 11 -21 24 -7 14 -17 22 -23 20
-6 -2 -20 2 -31 10 -19 15 -19 15 6 16 67 0 189 -71 167 -97 -6 -7 -7 -13 -4
-13 4 0 2 -10 -4 -22 -10 -21 -9 -21 9 2 11 14 21 29 21 33 0 5 6 5 13 1 6 -4
5 1 -4 12 -9 10 -19 28 -23 39 -9 30 -16 226 -8 221 4 -2 8 10 8 27 2 35 6 57
16 72 3 6 9 28 13 50 4 22 14 45 22 52 9 7 13 19 10 27 -3 8 1 20 8 26 8 7 12
16 9 21 -3 5 -1 9 5 9 5 0 18 15 30 33 11 17 42 50 70 71 27 22 48 43 45 48
-3 4 1 5 9 2 8 -3 21 1 28 8 53 52 324 91 362 53 8 -8 17 -12 20 -9 3 3 13
-15 22 -41 10 -25 20 -44 22 -42 4 4 -32 106 -76 217 -13 30 -17 49 -10 43 20
-20 31 -15 17 7 -7 11 -20 20 -28 21 -11 0 -11 2 -2 6 8 3 1 12 -20 23 -18 10
-32 23 -30 30 1 6 -2 9 -7 6 -5 -3 -19 3 -32 13 -23 18 -24 18 -49 0 -14 -10
-37 -20 -52 -21 -15 -1 -25 -5 -22 -9 7 -12 -17 -22 -27 -12 -5 5 -10 21 -11
35 -2 25 -3 25 -28 10 -14 -9 -28 -21 -32 -27 -5 -6 -8 -6 -8 2 0 11 -17 17
-84 29 -16 3 -54 25 -86 49 -62 50 -67 52 -67 30z m-173 -250 c-26 -28 -45
-32 -53 -12 -4 10 1 13 17 10 13 -3 28 2 35 11 8 9 16 16 19 16 3 0 -5 -11
-18 -25z m-60 -59 c0 -3 -4 -8 -10 -11 -5 -3 -10 -1 -10 4 0 6 5 11 10 11 6 0
10 -2 10 -4z m-39 -30 c5 3 9 0 9 -5 0 -6 -8 -11 -17 -11 -14 0 -15 -2 -4 -9
8 -5 10 -14 6 -22 -11 -17 -24 18 -17 46 3 11 7 14 10 7 2 -7 8 -10 13 -6z
m-47 -48 c-3 -4 -9 -8 -15 -8 -5 0 -9 4 -9 8 0 5 7 9 15 9 8 0 12 -4 9 -9z
m22 -29 c1 -31 -17 -49 -45 -47 -21 2 -27 6 -23 18 3 8 10 18 16 22 7 5 6 8
-4 9 -8 0 -4 5 10 9 32 10 45 7 46 -11z m-99 -77 c-10 -10 -17 -26 -17 -35 0
-9 -4 -18 -9 -21 -14 -9 -21 20 -8 34 10 10 8 11 -8 6 -24 -9 -15 1 22 24 34
21 42 17 20 -8z m81 -87 c-3 -3 -9 2 -12 12 -6 14 -5 15 5 6 7 -7 10 -15 7
-18z m-78 11 c0 -3 -4 -8 -10 -11 -5 -3 -10 -1 -10 4 0 6 5 11 10 11 6 0 10
-2 10 -4z m-70 -30 c0 -3 -4 -8 -10 -11 -5 -3 -10 -1 -10 4 0 6 5 11 10 11 6
0 10 -2 10 -4z m85 -16 c3 -5 1 -10 -4 -10 -6 0 -11 5 -11 10 0 6 2 10 4 10 3
0 8 -4 11 -10z m-117 -35 c-6 -14 -13 -23 -15 -21 -5 5 15 46 22 46 3 0 -1
-11 -7 -25z m136 -29 c2 -14 -1 -23 -5 -20 -5 3 -9 -1 -9 -8 0 -9 -3 -9 -10 2
-6 10 -5 17 5 23 8 4 12 15 8 25 -3 9 -3 14 1 10 4 -3 9 -18 10 -32z m9 -77
c-8 -8 -13 -7 -18 2 -5 8 -4 10 3 5 7 -4 12 -2 12 5 0 7 3 9 7 6 4 -4 2 -12
-4 -18z m77 -90 c0 -5 -4 -9 -8 -9 -5 0 -9 7 -9 15 0 8 4 12 9 9 4 -3 8 -9 8
-15z m56 -67 c15 -26 40 -65 56 -87 l30 -40 -36 40 c-20 22 -44 55 -52 73 -9
17 -22 32 -30 32 -7 0 -16 4 -19 10 -4 6 1 7 12 3 16 -6 17 -5 3 12 -8 10 -10
16 -3 12 6 -4 23 -28 39 -55z m-106 -101 c0 -6 -4 -12 -8 -15 -5 -3 -9 1 -9 9
0 8 4 15 9 15 4 0 8 -4 8 -9z m65 -21 c16 -7 14 -9 -12 -7 -17 0 -29 5 -27 9
6 10 13 9 39 -2z m-5 -186 c0 -8 -19 -13 -24 -6 -3 5 1 9 9 9 8 0 15 -2 15 -3z"/>
<path d="M4553 5935 c-3 -9 -3 -19 1 -22 3 -4 6 -1 6 6 0 7 4 9 10 6 6 -3 7 1
4 9 -8 20 -13 20 -21 1z"/>
<path d="M7447 6357 c-3 -8 1 -14 9 -14 16 0 19 13 5 21 -5 3 -11 0 -14 -7z"/>
<path d="M7658 6363 c7 -3 16 -2 19 1 4 3 -2 6 -13 5 -11 0 -14 -3 -6 -6z"/>
<path d="M8004 6356 c-3 -7 -16 -12 -30 -10 -13 1 -22 -2 -19 -6 3 -5 12 -7
20 -3 11 4 14 0 9 -13 -5 -16 -4 -17 5 -4 19 25 32 50 26 50 -3 0 -8 -6 -11
-14z"/>
<path d="M5636 6350 c4 -8 24 -40 44 -70 73 -111 208 -336 215 -358 6 -21 5
-22 -22 -10 -15 7 -40 20 -55 30 -32 22 -81 23 -98 3 -11 -13 -16 -13 -45 5
-28 17 -34 18 -51 5 -12 -9 -14 -14 -6 -15 7 0 11 -4 7 -9 -3 -5 -1 -12 5 -16
16 -10 11 -37 -12 -62 -22 -23 -21 -33 4 -37 7 -1 19 -5 26 -10 7 -4 23 -9 35
-10 12 -2 32 -6 44 -10 l22 -7 -20 46 c-11 25 -19 50 -17 56 2 5 16 -21 32
-58 16 -37 39 -90 52 -118 12 -27 25 -58 28 -67 3 -10 11 -18 18 -18 9 0 8 3
-2 10 -10 6 -11 10 -2 10 6 0 12 5 12 11 0 5 -4 8 -9 5 -11 -7 -29 40 -26 69
0 11 6 30 13 41 6 12 8 25 4 29 -4 5 -2 5 5 1 7 -4 10 -13 7 -20 -3 -7 1 -20
8 -27 7 -8 14 -21 16 -29 7 -30 3 -143 -5 -151 -5 -5 -26 20 -47 56 -21 36
-41 65 -44 65 -4 0 -60 -51 -125 -113 l-118 -112 11 -37 c6 -21 15 -39 20 -39
6 -1 14 -2 19 -3 15 -2 25 -16 11 -16 -9 0 -10 -3 -1 -14 9 -10 9 -15 0 -18
-8 -3 -9 -21 -4 -62 4 -32 11 -53 15 -46 4 6 11 11 16 10 5 -1 10 4 13 11 2 6
-1 9 -7 5 -5 -3 -12 1 -15 9 -4 9 -1 12 9 8 7 -3 14 0 14 6 0 6 -5 11 -11 11
-8 0 -8 5 1 15 7 8 19 15 26 15 16 0 16 6 4 35 -5 11 -9 14 -9 8 -1 -15 -31
-18 -31 -4 0 15 42 41 53 34 6 -3 7 -1 3 6 -5 7 3 13 24 17 17 4 33 11 36 15
3 5 10 7 15 3 5 -3 16 -1 24 6 11 9 12 7 8 -9 -3 -11 -8 -20 -12 -19 -22 2
-41 -5 -67 -27 -19 -16 -24 -25 -14 -25 13 0 13 -2 1 -9 -11 -7 -10 -10 5 -13
45 -9 95 22 58 36 -9 3 -12 1 -9 -4 3 -6 -2 -10 -11 -10 -15 0 -14 4 6 25 12
13 26 22 31 20 4 -3 14 2 22 10 18 17 37 20 37 5 0 -18 -32 -60 -41 -54 -5 3
-6 -2 -3 -11 5 -11 0 -18 -16 -22 -13 -4 -17 -8 -11 -13 8 -4 -12 -33 -51 -77
-61 -68 -92 -92 -49 -37 25 31 27 46 6 38 -8 -4 -12 -10 -9 -15 3 -5 0 -8 -8
-7 -7 2 -12 -3 -11 -9 2 -7 -4 -13 -12 -13 -17 0 -20 -25 -5 -35 14 -9 13 -25
-2 -25 -6 0 -41 -15 -77 -34 -36 -18 -77 -37 -91 -41 -14 -4 -38 -18 -55 -30
-16 -12 -38 -25 -47 -28 -15 -5 -16 -4 -6 13 7 10 23 22 36 25 14 3 22 9 18
12 -9 10 15 33 33 32 12 0 11 -2 -4 -9 -17 -7 -17 -9 -3 -9 10 -1 22 8 28 19
6 11 15 20 21 20 6 0 8 -4 5 -9 -3 -4 6 -6 19 -3 14 2 25 9 25 14 0 6 -7 7
-16 4 -9 -4 -13 -2 -8 5 8 13 -35 2 -50 -12 -6 -5 -14 -9 -20 -9 -5 0 -1 6 9
14 10 7 16 20 12 28 -6 18 17 18 48 2 25 -14 61 -12 77 4 9 9 7 12 -9 12 -12
0 -25 5 -28 10 -3 6 -11 10 -16 10 -6 0 -8 -4 -5 -8 7 -11 -56 -2 -71 10 -9 7
-13 7 -13 0 0 -5 -21 -15 -47 -21 -41 -11 -49 -10 -59 3 -12 17 -29 23 -19 7
3 -5 -1 -16 -9 -24 -8 -8 -13 -16 -11 -19 2 -2 -4 -4 -13 -5 -9 -1 -46 -8 -82
-16 -39 -9 -66 -11 -69 -5 -1 5 -13 -5 -26 -22 -22 -30 -22 -34 -9 -68 8 -20
19 -45 24 -54 6 -11 6 -18 1 -18 -5 0 -11 5 -13 12 -3 9 -6 9 -12 0 -4 -7 -2
-12 3 -12 6 0 11 -4 11 -9 0 -5 -23 -11 -50 -13 -28 -1 -50 1 -50 6 0 4 -7 6
-15 2 -8 -3 -15 0 -15 5 0 6 9 9 19 6 12 -3 22 1 25 10 4 10 2 13 -8 10 -14
-6 -33 26 -28 46 1 4 -3 7 -8 7 -6 0 -10 -4 -10 -9 0 -12 -39 -21 -45 -10 -3
4 -12 6 -20 2 -8 -3 -15 0 -15 7 0 9 -7 7 -20 -5 -19 -17 -22 -17 -66 0 -31
12 -44 22 -40 31 3 8 1 14 -4 14 -5 0 -12 11 -16 25 -4 17 -13 24 -28 24 -11
0 -32 3 -45 7 -17 5 -22 4 -17 -5 4 -6 12 -9 17 -6 5 4 9 -1 9 -10 0 -14 -5
-13 -37 6 -21 12 -50 31 -66 42 -66 45 -42 3 54 -95 101 -102 204 -189 278
-235 57 -35 212 -114 233 -119 10 -2 28 -7 41 -10 12 -4 64 -12 115 -19 52 -8
100 -16 108 -19 8 -3 14 0 14 6 0 7 5 7 14 -1 8 -7 28 -13 45 -13 17 -1 31 -5
31 -10 0 -5 5 -6 12 -2 6 4 38 8 70 10 75 3 88 5 88 16 0 5 10 6 21 3 15 -5
19 -4 15 4 -4 6 -1 11 7 11 7 0 22 8 33 19 11 10 30 22 42 25 12 4 22 12 22
18 0 5 7 7 16 4 8 -3 12 -2 9 4 -3 5 7 12 22 16 15 4 31 12 35 18 4 6 11 11
15 11 7 1 40 26 84 68 11 10 17 23 13 29 -4 7 -3 8 4 4 13 -8 67 68 58 83 -4
5 0 13 7 18 8 4 18 21 23 36 l10 29 120 -125 c117 -120 213 -202 282 -240 17
-10 32 -15 32 -10 0 4 4 4 8 -2 17 -23 71 -43 120 -43 28 0 53 -1 55 -2 1 -1
29 -3 62 -4 33 -1 70 -7 81 -14 12 -6 24 -8 28 -5 10 10 46 11 46 1 0 -5 5 -6
12 -2 24 15 57 13 61 -4 4 -15 5 -15 6 1 0 9 8 17 16 17 8 0 15 9 15 19 0 12
11 23 28 30 32 12 72 45 72 59 0 5 13 15 29 22 16 6 42 31 58 53 15 23 31 44
36 45 4 2 7 12 7 23 0 10 5 19 11 19 6 0 8 7 5 16 -3 8 -2 12 4 9 6 -3 10 4
11 17 0 13 3 41 6 63 14 105 4 205 -23 236 -8 8 -14 26 -14 40 -1 13 -14 40
-30 59 -17 19 -30 38 -30 44 0 13 -68 95 -113 136 -21 19 -55 56 -75 82 -26
34 -38 44 -45 35 -6 -8 -7 -6 -3 6 4 13 -6 30 -35 58 -46 44 -51 47 -42 22 6
-16 5 -16 -10 -4 -9 7 -14 18 -10 24 3 5 2 7 -4 4 -5 -3 -25 6 -44 22 -56 46
-67 46 -79 1 -34 -132 -30 -124 -45 -104 -11 16 -11 20 1 27 10 6 11 13 5 25
-10 21 -3 44 11 36 7 -4 8 -2 4 5 -4 6 -12 9 -17 6 -5 -4 -9 -1 -9 6 0 10 -3
10 -12 1 -10 -10 -15 -8 -24 9 -10 19 -12 19 -17 5 -5 -11 -3 -15 5 -10 7 4 8
3 4 -4 -8 -14 -36 -16 -36 -4 0 4 6 14 13 21 10 11 8 12 -9 3 -11 -6 -32 -9
-47 -8 -14 2 -24 -1 -21 -5 3 -5 -2 -9 -10 -9 -18 0 -20 11 -6 28 7 9 7 9 -2
2 -17 -14 -41 -13 -32 3 5 6 -7 0 -25 -15 -35 -30 -46 -34 -56 -18 -4 6 -15 8
-26 5 -12 -4 -21 -1 -25 9 -8 21 -24 20 -24 -1 0 -14 -3 -13 -16 5 -8 12 -20
20 -25 16 -6 -3 -17 2 -25 12 -14 18 -15 18 -5 -1 12 -26 -8 -55 -37 -55 -39
0 -71 18 -69 40 1 11 5 20 10 20 5 0 7 6 5 12 -3 7 1 32 8 56 8 24 9 40 3 37
-6 -4 -7 15 -3 52 l6 58 -26 -50 c-14 -27 -34 -60 -45 -72 -19 -22 -41 -30
-41 -15 0 4 -12 12 -26 19 -22 10 -20 6 12 -25 21 -20 42 -36 47 -34 5 1 6 -2
2 -8 -3 -5 12 -33 33 -62 44 -59 210 -223 257 -254 50 -33 136 -62 220 -75 44
-6 94 -17 112 -25 17 -7 34 -10 37 -6 3 3 6 34 6 69 0 35 4 63 10 63 6 0 10
-8 10 -17 0 -15 1 -15 13 1 12 17 15 17 30 2 9 -9 19 -15 23 -14 9 4 25 -52
18 -64 -3 -4 0 -16 6 -25 11 -17 11 -17 6 0 -4 13 0 17 18 17 26 0 41 -31 23
-49 -8 -8 -6 -11 6 -11 21 0 22 -13 2 -30 -15 -13 -16 -74 -1 -98 10 -16 12
-14 -51 -46 -85 -42 -207 -123 -255 -169 -22 -21 -19 -43 6 -39 9 2 16 -2 16
-9 0 -7 -10 -9 -24 -7 -19 4 -22 1 -18 -14 4 -16 -1 -19 -29 -18 -41 2 -155
-7 -187 -14 -15 -3 -26 1 -34 14 -6 10 -18 16 -26 13 -12 -5 -12 -3 -1 16 8
11 17 21 22 21 4 0 5 -4 2 -10 -3 -5 1 -10 9 -10 9 0 16 5 16 11 0 6 7 9 15 5
9 -3 15 0 15 10 0 8 -4 12 -10 9 -6 -3 -7 1 -4 9 3 9 10 14 14 11 5 -3 12 0
15 5 5 7 12 5 20 -7 13 -17 14 -16 8 5 -5 19 -10 22 -29 18 -21 -6 -24 -3 -24
23 0 23 6 31 32 42 17 7 26 15 20 17 -14 4 -103 -44 -181 -99 -57 -40 -61 -41
-92 -28 -41 16 -157 125 -205 191 -42 56 -45 48 56 147 30 29 48 48 38 42 -23
-17 -26 -6 -22 77 2 45 -2 90 -11 115 -7 23 -15 65 -16 92 -5 106 -70 232
-229 451 -25 34 -52 71 -60 83 -8 13 -31 44 -50 70 -19 26 -43 58 -53 71 -10
14 -15 18 -11 10z m17 -420 c-3 -11 -9 -17 -14 -15 -10 7 -1 35 11 35 5 0 6
-9 3 -20z m197 -64 c0 -3 -4 -8 -10 -11 -5 -3 -10 -1 -10 4 0 6 5 11 10 11 6
0 10 -2 10 -4z m-30 -76 c0 -28 -2 -30 -20 -20 -23 12 -25 21 -8 38 20 20 28
14 28 -18z m500 -46 c0 -8 -4 -12 -10 -9 -5 3 -10 10 -10 16 0 5 5 9 10 9 6 0
10 -7 10 -16z m279 -17 c0 -9 -2 -8 -6 1 -2 6 -10 9 -15 6 -7 -4 -8 -2 -4 5 9
13 26 5 25 -12z m-204 -27 c3 -6 -4 -10 -17 -10 -18 0 -20 2 -8 10 19 12 18
12 25 0z m65 -26 c0 -7 -6 -11 -13 -8 -8 3 -14 11 -14 18 0 8 6 12 14 9 7 -3
13 -11 13 -19z m-610 -158 c0 -3 -13 -20 -30 -38 -16 -18 -30 -27 -30 -21 0 7
10 23 23 37 20 22 37 32 37 22z m-203 -48 c-3 -8 -6 -5 -6 6 -1 11 2 17 5 13
3 -3 4 -12 1 -19z m1298 12 c-3 -5 -2 -10 4 -10 19 0 1 -26 -19 -27 -20 -2
-19 6 3 35 11 14 21 16 12 2z m98 -36 c2 -14 -2 -31 -9 -39 -11 -11 -12 -19
-3 -38 8 -19 8 -30 -1 -43 -10 -17 -11 -16 -6 6 7 33 -10 62 -23 41 -9 -14 -8
-22 6 -58 3 -10 7 -20 8 -23 1 -3 5 -13 9 -22 4 -9 3 -25 -4 -35 -10 -16 -10
-16 -5 4 5 18 3 22 -9 17 -11 -4 -13 0 -9 18 3 13 3 20 -1 16 -4 -3 -17 3 -28
14 -18 18 -18 21 -4 37 9 10 16 24 16 33 0 8 11 21 25 28 18 9 25 22 25 42 0
35 6 36 13 2z m-1426 -120 c-3 -3 -12 -4 -19 -1 -8 3 -5 6 6 6 11 1 17 -2 13
-5z m1403 -144 c-17 -31 -101 -85 -110 -70 -5 8 -10 9 -14 2 -3 -6 0 -12 6
-15 7 -2 -3 -12 -22 -22 -30 -16 -33 -16 -21 -2 9 11 10 17 2 17 -6 0 -11 7
-11 15 0 8 4 15 9 15 5 0 7 9 4 19 -6 25 21 40 73 40 44 -1 70 4 80 14 13 13
15 7 4 -13z m-190 -121 c0 -4 -7 -6 -15 -3 -8 4 -15 10 -15 15 0 4 7 6 15 3 8
-4 15 -10 15 -15z m-420 -28 c0 -5 -9 -7 -20 -4 -11 3 -20 7 -20 9 0 2 9 4 20
4 11 0 20 -4 20 -9z m386 -14 c-10 -7 -31 -22 -46 -34 -15 -12 -40 -27 -55
-33 -24 -9 -26 -9 -15 4 6 9 24 22 39 29 14 8 40 22 56 31 34 18 49 21 21 3z
m-1496 -27 c-24 -15 -37 -11 -16 5 11 8 22 12 25 9 3 -3 -1 -9 -9 -14z m1040
0 c0 -5 -3 -15 -6 -24 -9 -23 -27 -20 -21 4 3 11 1 20 -5 20 -5 0 -7 4 -3 10
6 10 35 2 35 -10z m-1085 -20 c-7 -12 -32 -13 -39 -2 -2 4 7 9 20 10 15 1 22
-2 19 -8z m-50 -21 c-4 -5 -16 -9 -28 -9 -21 1 -21 1 -3 15 20 15 41 11 31 -6z
m-249 -5 c-9 -8 -21 -12 -27 -8 -13 7 7 24 29 24 10 0 10 -4 -2 -16z"/>
<path d="M6970 5321 c0 -5 5 -13 10 -16 6 -3 10 -2 10 4 0 5 -4 13 -10 16 -5
3 -10 2 -10 -4z"/>
<path d="M8856 6337 c-18 -18 -26 -37 -26 -62 0 -19 -5 -35 -11 -35 -6 0 -8
-7 -5 -17 4 -10 4 -14 0 -10 -8 8 -90 -129 -100 -167 -3 -14 -10 -26 -15 -26
-5 0 -8 -3 -7 -7 3 -17 -54 -135 -147 -301 -65 -116 -63 -129 13 -106 33 10
110 14 279 14 219 0 233 1 223 18 -5 9 -31 73 -56 142 -26 69 -62 166 -81 215
-94 242 -103 324 -38 348 6 3 7 8 3 12 -4 4 -18 -4 -32 -18z m-35 -214 c-11
-42 -77 -208 -137 -343 -23 -52 -58 -89 -72 -75 -3 3 1 20 10 38 34 70 63 140
58 143 -3 1 3 11 13 22 10 10 19 28 21 38 4 18 22 59 90 203 24 51 33 38 17
-26z"/>
<path d="M5316 6342 c-3 -5 1 -9 9 -9 8 0 12 4 9 9 -3 4 -7 8 -9 8 -2 0 -6 -4
-9 -8z"/>
<path d="M7266 6338 c3 -5 10 -6 15 -3 13 9 11 12 -6 12 -8 0 -12 -4 -9 -9z"/>
<path d="M7595 6340 c-3 -6 1 -7 9 -4 18 7 21 14 7 14 -6 0 -13 -4 -16 -10z"/>
<path d="M7816 6323 c-6 -14 -5 -15 5 -6 7 7 10 15 7 18 -3 3 -9 -2 -12 -12z"/>
<path d="M6343 6299 c-35 -16 -63 -34 -63 -40 0 -15 17 -10 24 6 7 20 23 19
23 -1 0 -8 -12 -25 -26 -37 -14 -12 -36 -38 -48 -57 -13 -19 -23 -29 -23 -22
0 7 -4 11 -9 7 -6 -3 -4 -17 5 -33 7 -15 14 -38 14 -51 0 -31 60 -88 140 -135
66 -39 91 -46 69 -19 -11 13 -11 17 -1 21 7 2 19 10 27 18 7 8 29 17 47 20 18
3 40 8 48 11 35 12 155 17 200 8 13 -2 72 -32 132 -65 60 -33 126 -63 148 -66
22 -4 40 -12 40 -18 0 -6 4 -6 9 2 4 8 11 13 15 13 51 -7 89 47 87 126 -1 32
-38 120 -70 167 -31 45 -60 73 -104 100 -28 17 -28 17 -17 -3 9 -18 8 -21 -8
-21 -10 0 -28 -9 -40 -20 -12 -11 -26 -20 -32 -20 -5 0 -10 -4 -10 -10 0 -5
-10 -10 -23 -10 -24 0 -67 -25 -80 -47 -14 -22 -24 -15 -64 42 -21 30 -43 55
-48 55 -6 0 -17 9 -25 20 -8 11 -20 20 -26 20 -6 0 -17 6 -23 14 -7 8 -20 13
-29 11 -9 -1 -26 5 -36 14 -11 9 -16 10 -12 4 8 -15 -3 -17 -23 -4 -9 6 -21 5
-31 -1 -12 -8 -26 -7 -49 3 -17 8 -31 17 -31 21 0 13 -11 9 -77 -23z m14 -6
c-4 -3 1 -12 10 -18 15 -11 14 -12 -10 -12 -23 0 -25 2 -16 18 5 11 13 19 16
19 3 0 3 -3 0 -7z m73 2 c0 -2 -10 -10 -22 -16 -21 -11 -22 -11 -9 4 13 16 31
23 31 12z"/>
<path d="M7540 6323 c-14 -3 -28 -10 -32 -16 -4 -7 -11 -7 -22 2 -17 14 -40 6
-30 -11 4 -6 10 -5 15 3 6 10 9 10 9 2 0 -22 -22 -25 -36 -5 -13 19 -50 22
-76 6 -4 -3 -8 1 -8 8 0 10 -3 9 -9 -2 -6 -8 -7 -19 -3 -25 3 -5 -1 -4 -10 2
-8 7 -19 9 -23 5 -5 -4 -5 -1 -1 6 4 6 2 12 -3 12 -6 0 -11 -5 -11 -11 0 -8
-5 -8 -15 1 -11 9 -15 9 -15 1 0 -7 -11 -9 -27 -6 -30 5 -76 6 -107 3 -22 -2
-14 -9 109 -102 106 -81 159 -105 265 -119 8 -2 21 -6 28 -11 20 -12 22 -6 26
75 3 41 8 100 11 132 4 31 3 56 -2 56 -4 -1 -19 -4 -33 -6z"/>
<path d="M5140 6313 c8 -3 19 -11 23 -17 6 -7 7 -6 4 4 -2 8 -12 16 -23 17
-13 2 -15 1 -4 -4z"/>
<path d="M5251 6304 c0 -11 3 -14 6 -6 3 7 2 16 -1 19 -3 4 -6 -2 -5 -13z"/>
<path d="M5460 6304 c0 -3 10 -15 23 -26 12 -11 17 -17 12 -14 -6 2 -17 1 -25
-5 -12 -7 -11 -9 5 -9 17 0 17 -2 5 -10 -9 -6 -11 -10 -3 -10 7 0 10 -6 7 -14
-3 -8 3 -17 14 -20 11 -4 19 -14 18 -24 0 -9 6 -17 14 -17 8 0 28 -12 44 -27
22 -21 25 -28 12 -28 -9 0 -16 -7 -16 -15 0 -19 21 -19 46 1 10 8 13 12 6 9
-10 -5 -13 -2 -10 11 3 13 11 18 28 16 13 -1 21 1 17 4 -4 4 -15 8 -25 9 -41
5 -94 44 -99 74 -1 8 -7 17 -13 21 -8 5 -6 9 6 14 15 6 13 11 -17 36 -33 28
-49 36 -49 24z"/>
<path d="M5276 6287 c3 -10 9 -15 12 -12 3 3 0 11 -7 18 -10 9 -11 8 -5 -6z"/>
<path d="M8890 6284 c1 -15 50 -66 61 -62 5 2 -6 19 -26 38 -19 18 -35 30 -35
24z"/>
<path d="M5568 6220 c17 -11 32 -23 32 -26 0 -4 -7 -1 -15 6 -9 7 -19 10 -23
6 -7 -7 24 -30 43 -31 6 -1 9 -7 7 -14 -2 -8 3 -11 12 -8 8 3 28 -7 45 -23 17
-16 43 -32 58 -35 l28 -6 -25 20 c-14 12 -43 35 -64 53 -56 47 -103 78 -118
78 -7 0 2 -9 20 -20z"/>
<path d="M6250 6230 c0 -5 5 -10 11 -10 5 0 7 5 4 10 -3 6 -8 10 -11 10 -2 0
-4 -4 -4 -10z"/>
<path d="M4789 6193 c-13 -16 -12 -17 4 -4 9 7 17 15 17 17 0 8 -8 3 -21 -13z"/>
<path d="M8970 6195 c6 -8 9 -19 5 -25 -3 -5 -1 -10 5 -10 6 0 8 -5 4 -12 -4
-7 -3 -8 5 -4 6 4 14 0 18 -11 4 -10 15 -26 25 -35 11 -9 19 -18 18 -20 -1 -2
3 -14 9 -28 5 -14 10 -21 10 -16 1 5 10 1 21 -9 24 -22 38 -14 15 8 -21 22
-20 44 2 26 15 -13 15 -12 5 8 -8 13 -18 19 -30 16 -12 -3 -22 4 -32 24 -21
41 -70 103 -82 103 -6 0 -6 -6 2 -15z"/>
<path d="M5500 6139 c0 -6 -9 -8 -22 -4 -22 6 -22 6 -4 -9 23 -18 42 -20 51
-6 3 6 1 10 -5 10 -6 0 -8 5 -5 10 3 6 1 10 -4 10 -6 0 -11 -5 -11 -11z"/>
<path d="M5537 6144 c-4 -4 -1 -14 6 -22 6 -9 7 -13 1 -9 -7 4 -11 -6 -12 -28
-1 -37 13 -54 31 -36 9 9 8 11 -5 6 -19 -7 -19 14 -1 37 8 10 8 19 -1 36 -7
12 -15 20 -19 16z"/>
<path d="M5480 6100 c0 -5 5 -10 11 -10 5 0 7 5 4 10 -3 6 -8 10 -11 10 -2 0
-4 -4 -4 -10z"/>
<path d="M5775 6061 c-3 -5 -2 -12 3 -15 5 -3 9 1 9 9 0 17 -3 19 -12 6z"/>
<path d="M5593 6052 c-16 -10 -25 -49 -13 -57 5 -3 18 -1 27 5 16 9 15 10 -4
5 -25 -7 -30 6 -10 24 10 8 17 7 25 -1 17 -17 15 -35 -5 -47 -10 -6 -13 -11
-7 -11 6 0 20 8 31 18 19 17 19 17 -7 44 -14 15 -31 24 -37 20z"/>
<path d="M7785 6050 c-3 -5 -1 -10 4 -10 6 0 11 -7 11 -16 0 -8 4 -13 9 -10
11 7 2 46 -10 46 -4 0 -11 -4 -14 -10z"/>
<path d="M9030 6051 c0 -5 5 -13 10 -16 6 -3 10 -2 10 4 0 5 -4 13 -10 16 -5
3 -10 2 -10 -4z"/>
<path d="M2010 6023 c6 -13 15 -23 21 -23 6 0 7 -4 4 -10 -3 -5 1 -10 10 -10
9 0 14 -3 12 -7 -2 -5 7 -18 20 -30 43 -41 23 -7 -27 48 -28 30 -46 44 -40 32z"/>
<path d="M4075 6020 c3 -5 8 -10 11 -10 2 0 4 5 4 10 0 6 -5 10 -11 10 -5 0
-7 -4 -4 -10z"/>
<path d="M7770 6021 c0 -5 5 -13 10 -16 6 -3 10 -2 10 4 0 5 -4 13 -10 16 -5
3 -10 2 -10 -4z"/>
<path d="M5781 5991 c-11 -7 -9 -11 9 -21 27 -14 39 -5 19 15 -9 9 -19 11 -28
6z"/>
<path d="M4270 5968 c0 -6 3 -9 6 -5 9 9 54 -44 47 -56 -3 -6 -1 -7 5 -3 7 4
12 1 12 -8 0 -9 -5 -16 -10 -16 -7 0 -7 -7 0 -20 6 -11 8 -26 4 -33 -5 -7 -1
-7 10 2 13 11 14 16 4 22 -10 7 -10 9 -1 9 8 0 10 7 6 18 -6 15 -5 15 10 3 24
-19 22 4 -3 29 -11 11 -20 25 -20 30 0 6 -9 10 -19 10 -10 0 -21 7 -25 15 -6
18 -26 20 -26 3z"/>
<path d="M5687 5964 c3 -7 9 -14 14 -14 14 0 10 17 -5 23 -10 4 -13 1 -9 -9z"/>
<path d="M7765 5969 c-4 -6 -5 -12 -2 -15 2 -3 7 2 10 11 7 17 1 20 -8 4z"/>
<path d="M7793 5940 c-2 -21 2 -30 12 -30 18 0 19 20 3 43 -12 15 -13 14 -15
-13z"/>
<path d="M2076 5862 c-2 -4 -1 -14 5 -22 7 -12 9 -10 9 8 0 23 -5 28 -14 14z"/>
<path d="M2120 5840 c-15 -27 -22 -56 -12 -45 4 4 8 11 8 16 1 5 2 12 3 15 0
4 8 1 16 -6 16 -13 18 -6 6 25 -7 19 -9 18 -21 -5z"/>
<path d="M2635 5840 c-3 -5 -1 -10 4 -10 6 0 11 5 11 10 0 6 -2 10 -4 10 -3 0
-8 -4 -11 -10z"/>
<path d="M4324 5789 c0 -9 5 -15 10 -12 5 4 7 0 4 -9 -4 -8 -1 -15 6 -15 17 0
14 33 -4 45 -12 7 -16 5 -16 -9z"/>
<path d="M6206 5781 c-7 -11 5 -15 32 -12 6 1 12 -6 12 -15 0 -20 13 -10 16
12 1 9 0 13 -3 10 -4 -3 -12 -1 -20 5 -10 9 -13 8 -13 -2 0 -12 -2 -12 -9 0
-6 9 -11 10 -15 2z"/>
<path d="M3490 5730 c20 -13 33 -13 25 0 -3 6 -14 10 -23 10 -15 0 -15 -2 -2
-10z"/>
<path d="M5826 5725 c-3 -8 -1 -15 4 -15 13 0 22 18 11 24 -5 3 -11 -1 -15 -9z"/>
<path d="M7638 5685 c2 -19 7 -35 11 -35 3 0 6 -20 6 -45 0 -25 4 -45 8 -45 5
0 6 -4 2 -9 -3 -5 -1 -13 5 -16 6 -4 9 -20 6 -35 -2 -16 1 -31 7 -34 9 -5 9
-8 0 -12 -10 -4 -10 -11 -2 -26 6 -11 8 -22 5 -25 -5 -6 -26 40 -26 58 0 14
-17 11 -18 -3 0 -7 -3 -31 -7 -53 -3 -22 -7 -56 -8 -76 -2 -20 -7 -43 -13 -50
-25 -33 -25 -42 0 -19 19 17 27 20 26 10 -4 -29 0 -41 13 -35 6 4 4 0 -5 -8
-21 -17 -24 -43 -5 -50 7 -3 4 -6 -6 -6 -14 -1 -17 -6 -12 -21 4 -13 1 -22 -9
-26 -9 -3 -16 -10 -16 -15 0 -25 72 38 121 105 34 45 37 66 10 66 -19 0 -33
30 -37 83 -3 35 3 34 39 -5 17 -18 27 -28 24 -22 -4 7 -14 44 -22 84 -19 92
-85 300 -94 300 -4 0 -5 -16 -3 -35z"/>
<path d="M5846 5597 c3 -10 9 -15 12 -12 3 3 0 11 -7 18 -10 9 -11 8 -5 -6z"/>
<path d="M8855 5570 c3 -5 8 -10 11 -10 2 0 4 5 4 10 0 6 -5 10 -11 10 -5 0
-7 -4 -4 -10z"/>
<path d="M7775 5421 c-2 -5 1 -14 9 -20 10 -9 15 -8 19 3 6 15 -19 31 -28 17z"/>
<path d="M4336 5407 c3 -10 9 -15 12 -12 3 3 0 11 -7 18 -10 9 -11 8 -5 -6z"/>
<path d="M6190 5366 c0 -2 8 -10 18 -17 15 -13 16 -12 3 4 -13 16 -21 21 -21
13z"/>
<path d="M8299 5283 c-5 -16 -23 -54 -39 -86 -33 -65 -25 -65 49 0 44 39 44
39 32 76 -15 44 -28 47 -42 10z"/>
<path d="M5648 5280 c-13 -11 -18 -20 -13 -21 6 0 20 -2 33 -3 25 -3 45 14 34
29 -12 17 -30 15 -54 -5z"/>
<path d="M9161 5295 c1 -19 18 -51 18 -35 0 8 -4 22 -9 30 -5 8 -9 11 -9 5z"/>
<path d="M6270 5271 c0 -5 7 -12 16 -15 14 -5 15 -4 4 9 -14 17 -20 19 -20 6z"/>
<path d="M5506 5253 c-6 -14 -5 -15 5 -6 7 7 10 15 7 18 -3 3 -9 -2 -12 -12z"/>
<path d="M5277 5203 c-4 -3 -7 -12 -7 -20 0 -11 4 -11 20 -1 11 7 20 16 20 20
0 10 -24 10 -33 1z"/>
<path d="M4714 5139 c-3 -6 -2 -15 3 -20 5 -5 9 -1 9 11 0 23 -2 24 -12 9z"/>
<path d="M5455 5140 c-3 -5 -1 -10 4 -10 6 0 11 5 11 10 0 6 -2 10 -4 10 -3 0
-8 -4 -11 -10z"/>
<path d="M8350 5116 c0 -14 4 -27 8 -30 5 -3 6 8 4 25 -5 35 -12 38 -12 5z"/>
<path d="M8401 5064 c0 -11 3 -14 6 -6 3 7 2 16 -1 19 -3 4 -6 -2 -5 -13z"/>
<path d="M8362 5048 c-8 -8 -8 -16 0 -32 11 -20 11 -20 20 4 10 27 -2 46 -20
28z"/>
<path d="M4976 5041 c-3 -4 1 -17 9 -27 10 -13 14 -15 15 -5 0 11 5 9 22 -5
22 -19 22 -19 -1 14 -23 32 -35 39 -45 23z"/>
<path d="M4811 5008 c-1 -20 7 -22 29 -8 8 5 11 12 7 17 -5 4 -12 1 -16 -6 -7
-11 -10 -11 -14 0 -4 10 -6 9 -6 -3z"/>
<path d="M4920 5010 c-8 -5 -12 -12 -9 -15 4 -3 12 1 19 10 14 17 11 19 -10 5z"/>
<path d="M5051 4994 c0 -11 3 -14 6 -6 3 7 2 16 -1 19 -3 4 -6 -2 -5 -13z"/>
<path d="M6515 4970 c-3 -5 -4 -10 -1 -10 2 0 12 -3 20 -6 12 -5 15 -2 10 10
-7 18 -20 21 -29 6z"/>
<path d="M5036 4955 c4 -8 10 -15 15 -15 5 0 9 7 9 15 0 8 -7 15 -15 15 -9 0
-12 -6 -9 -15z"/>
<path d="M6475 4960 c-3 -6 1 -7 9 -4 18 7 21 14 7 14 -6 0 -13 -4 -16 -10z"/>
<path d="M8160 4959 c-16 -4 -1 -7 45 -7 39 0 79 3 90 8 25 11 -97 10 -135 -1z"/>
<path d="M4569 4505 c-1 -5 -1 -14 0 -19 1 -6 0 -20 -3 -32 -5 -20 -10 -21
-71 -16 l-65 5 0 -208 0 -208 -45 5 c-53 6 -62 -2 -39 -37 26 -41 52 -50 76
-28 47 42 51 65 43 245 -5 125 -4 172 5 183 6 8 33 17 58 20 66 9 82 15 82 28
0 16 -39 75 -41 62z"/>
<path d="M5424 4463 c-4 -26 -7 -106 -7 -176 0 -100 -3 -130 -14 -134 -7 -3
-13 -10 -12 -17 3 -26 -2 -47 -10 -42 -5 3 -11 -3 -14 -14 -7 -28 -82 -60
-142 -60 -27 0 -75 7 -105 15 -30 8 -56 13 -57 11 -2 -2 10 -15 27 -30 28 -23
40 -26 104 -26 115 0 166 20 242 95 36 36 70 65 77 65 7 0 20 7 31 15 13 10
24 11 36 5 29 -16 31 13 6 67 -13 26 -31 69 -40 96 -10 26 -22 47 -26 47 -5 0
-25 28 -46 63 -20 34 -37 64 -39 65 -2 2 -7 -18 -11 -45z"/>
<path d="M6829 4495 c0 -11 -2 -38 -4 -60 -1 -22 -3 -120 -4 -217 l-1 -178
-27 0 c-16 0 -35 -5 -43 -10 -13 -9 -13 -11 0 -20 25 -16 83 -11 115 10 17 11
59 34 95 51 104 50 115 67 85 125 -8 16 -15 37 -15 47 0 9 -4 17 -8 17 -5 0
-15 15 -24 33 -13 26 -126 177 -159 212 -6 5 -9 1 -10 -10z"/>
<path d="M5097 4461 c-9 -68 -7 -205 4 -238 6 -18 20 -40 32 -48 25 -17 41
-20 32 -5 -4 6 -2 17 5 25 6 7 12 42 14 76 3 52 -2 74 -25 127 -16 35 -35 72
-42 83 -13 18 -15 17 -20 -20z"/>
<path d="M3780 4452 c0 -10 -7 -27 -16 -38 -8 -10 -12 -13 -8 -5 5 10 3 13 -8
9 -8 -4 -34 2 -58 13 -23 10 -53 19 -65 19 -24 0 -55 -23 -55 -41 0 -6 37 -27
83 -48 86 -40 119 -67 136 -114 13 -33 15 -87 4 -87 -5 0 -8 -14 -9 -30 -1
-34 -35 -73 -57 -64 -8 3 -20 -3 -28 -13 -13 -16 -12 -17 4 -4 9 8 20 11 23 8
3 -3 -5 -11 -18 -19 -32 -18 -162 -15 -217 6 -24 9 -46 15 -47 13 -2 -2 17
-24 41 -49 49 -52 118 -79 250 -99 63 -10 76 -8 125 10 72 28 100 54 128 120
37 84 31 100 -94 280 -6 9 -31 46 -54 84 -43 68 -60 82 -60 49z"/>
<path d="M4259 4400 c25 -21 48 -37 53 -34 4 3 8 21 8 40 l0 34 -52 0 -53 -1
44 -39z"/>
<path d="M7435 4426 c-63 -28 -100 -93 -89 -155 9 -47 20 -68 44 -81 16 -9 26
-4 59 29 46 46 96 72 140 73 28 1 31 4 31 33 0 57 -65 115 -127 115 -15 -1
-41 -7 -58 -14z"/>
<path d="M6000 4296 l0 -136 42 0 c23 0 38 3 35 6 -4 4 7 22 23 41 17 18 30
38 30 43 0 5 12 15 28 22 42 20 42 64 -1 113 -31 35 -38 39 -95 43 l-62 4 0
-136z"/>
<path d="M7738 4365 c3 -16 6 -60 6 -96 0 -144 -91 -239 -232 -244 -61 -3
-116 9 -197 40 -16 6 -14 1 10 -24 38 -41 87 -53 183 -46 138 12 199 44 234
123 30 67 34 186 9 237 -17 34 -19 36 -13 10z"/>
<path d="M6297 4366 c-3 -8 -1 -17 6 -19 19 -6 13 -147 -8 -191 -23 -49 -86
-103 -134 -116 -23 -6 -76 -10 -118 -9 -43 1 -96 1 -118 0 l-40 -2 26 -14 c20
-11 52 -12 150 -6 111 6 131 10 172 34 52 31 68 51 122 155 43 82 41 92 -20
152 -26 25 -34 28 -38 16z"/>
<path d="M3511 4239 c69 -83 167 -111 157 -46 -2 14 -19 27 -53 40 -27 10 -69
27 -93 38 -23 10 -45 19 -48 19 -3 0 13 -23 37 -51z"/>
<path d="M6206 4108 c3 -5 10 -6 15 -3 13 9 11 12 -6 12 -8 0 -12 -4 -9 -9z"/>
<path d="M7600 4070 c0 -5 5 -10 10 -10 6 0 10 5 10 10 0 6 -4 10 -10 10 -5 0
-10 -4 -10 -10z"/>
<path d="M5606 3432 c-8 -14 11 -35 24 -27 8 5 11 3 9 -4 -3 -7 -7 -11 -10 -9
-3 2 -13 -3 -21 -10 -19 -16 -86 -22 -91 -8 -2 5 -9 6 -16 2 -11 -7 -11 -10 0
-17 11 -8 10 -12 -5 -24 -23 -17 -46 -20 -46 -5 0 6 -5 10 -11 10 -15 0 162
-191 186 -200 26 -10 81 13 118 48 33 31 77 112 77 141 0 17 -4 19 -24 11 -18
-7 -28 -5 -40 9 -9 10 -16 23 -16 29 0 7 -10 9 -27 6 -28 -5 -73 24 -73 46 0
12 -27 13 -34 2z m160 -151 c-10 -11 -15 -24 -11 -30 3 -6 0 -9 -7 -6 -17 7
-60 -37 -56 -56 2 -8 -4 -13 -13 -11 -9 1 -22 -5 -29 -13 -7 -8 -17 -15 -22
-15 -5 0 26 34 69 75 75 72 105 96 69 56z m-176 -71 c0 -5 -2 -10 -4 -10 -3 0
-8 5 -11 10 -3 6 -1 10 4 10 6 0 11 -4 11 -10z"/>
</g>
</svg>
